<svg version="1.1" 
    width="210mm" 
    height="297mm" 
    viewBox="0 0 210 297" 
    xmlns="http://www.w3.org/2000/svg"
>


<g transform="translate(29 7)">

  		<rect x="0" y="0" width="50" height="70" fill="red" stroke="black" stroke-width="1"/>
      <rect x="5" y="5" width="40" height="60" fill="White" stroke="None" opacity="0.5"/>

      

      <text x="20" y="10" fill="black" stroke="yellow" stroke-width="0.5" style="paint-order:stroke" text-anchor="middle" font-size="6" font-family="Rockwell" >Twin Shields</text>
      
      
        <rect x="38" y="4" width="10" height="9" fill="gray" stroke="black" stroke-width="0.1" />
  <text x="45" y="8" font-size="4" font-family="Rockwell"  text-anchor="end">Ir</text>
  <text x="45" y="9" font-size="3" font-family="Rockwell"  text-anchor="start">5</text>

      
      


</g>
<g transform="translate(80 7)">

  		<rect x="0" y="0" width="50" height="70" fill="red" stroke="black" stroke-width="1"/>
      <rect x="5" y="5" width="40" height="60" fill="White" stroke="None" opacity="0.5"/>

      

      <text x="20" y="10" fill="black" stroke="yellow" stroke-width="0.5" style="paint-order:stroke" text-anchor="middle" font-size="6" font-family="Rockwell" >Twin Shields</text>
      
      
        <rect x="38" y="4" width="10" height="9" fill="gray" stroke="black" stroke-width="0.1" />
  <text x="45" y="8" font-size="4" font-family="Rockwell"  text-anchor="end">Ir</text>
  <text x="45" y="9" font-size="3" font-family="Rockwell"  text-anchor="start">5</text>

      
      


</g>
<g transform="translate(131 7)">

  		<rect x="0" y="0" width="50" height="70" fill="red" stroke="black" stroke-width="1"/>
      <rect x="5" y="5" width="40" height="60" fill="White" stroke="None" opacity="0.5"/>

      

      <text x="20" y="10" fill="black" stroke="yellow" stroke-width="0.5" style="paint-order:stroke" text-anchor="middle" font-size="6" font-family="Rockwell" >Blue Gun</text>
      
      
        <rect x="38" y="4" width="10" height="9" fill="gray" stroke="black" stroke-width="0.1" />
  <text x="45" y="8" font-size="4" font-family="Rockwell"  text-anchor="end">Ir</text>
  <text x="45" y="9" font-size="3" font-family="Rockwell"  text-anchor="start">4</text>

      
      
      
        <rect x="38" y="14" width="10" height="9" fill="maroon" stroke="black" stroke-width="0.1" />
  <text x="45" y="18" font-size="4" font-family="Rockwell"  text-anchor="end">Wd</text>
  <text x="45" y="19" font-size="3" font-family="Rockwell"  text-anchor="start">7</text>

      
      


</g>
<g transform="translate(29 78)">

  		<rect x="0" y="0" width="50" height="70" fill="red" stroke="black" stroke-width="1"/>
      <rect x="5" y="5" width="40" height="60" fill="White" stroke="None" opacity="0.5"/>

      

      <text x="20" y="10" fill="black" stroke="yellow" stroke-width="0.5" style="paint-order:stroke" text-anchor="middle" font-size="6" font-family="Rockwell" >Blue Gun</text>
      
      
        <rect x="38" y="4" width="10" height="9" fill="gray" stroke="black" stroke-width="0.1" />
  <text x="45" y="8" font-size="4" font-family="Rockwell"  text-anchor="end">Ir</text>
  <text x="45" y="9" font-size="3" font-family="Rockwell"  text-anchor="start">4</text>

      
      
      
        <rect x="38" y="14" width="10" height="9" fill="maroon" stroke="black" stroke-width="0.1" />
  <text x="45" y="18" font-size="4" font-family="Rockwell"  text-anchor="end">Wd</text>
  <text x="45" y="19" font-size="3" font-family="Rockwell"  text-anchor="start">7</text>

      
      


</g>
<g transform="translate(80 78)">

  		<rect x="0" y="0" width="50" height="70" fill="red" stroke="black" stroke-width="1"/>
      <rect x="5" y="5" width="40" height="60" fill="White" stroke="None" opacity="0.5"/>

      

      <text x="20" y="10" fill="black" stroke="yellow" stroke-width="0.5" style="paint-order:stroke" text-anchor="middle" font-size="6" font-family="Rockwell" >BuckShot</text>
      
      
        <rect x="38" y="4" width="10" height="9" fill="gray" stroke="black" stroke-width="0.1" />
  <text x="45" y="8" font-size="4" font-family="Rockwell"  text-anchor="end">Ir</text>
  <text x="45" y="9" font-size="3" font-family="Rockwell"  text-anchor="start">6</text>

      
      


</g>
<g transform="translate(131 78)">

  		<rect x="0" y="0" width="50" height="70" fill="red" stroke="black" stroke-width="1"/>
      <rect x="5" y="5" width="40" height="60" fill="White" stroke="None" opacity="0.5"/>

      

      <text x="20" y="10" fill="black" stroke="yellow" stroke-width="0.5" style="paint-order:stroke" text-anchor="middle" font-size="6" font-family="Rockwell" >BuckShot</text>
      
      
        <rect x="38" y="4" width="10" height="9" fill="gray" stroke="black" stroke-width="0.1" />
  <text x="45" y="8" font-size="4" font-family="Rockwell"  text-anchor="end">Ir</text>
  <text x="45" y="9" font-size="3" font-family="Rockwell"  text-anchor="start">6</text>

      
      


</g>
<g transform="translate(29 149)">

  		<rect x="0" y="0" width="50" height="70" fill="red" stroke="black" stroke-width="1"/>
      <rect x="5" y="5" width="40" height="60" fill="White" stroke="None" opacity="0.5"/>

      

      <text x="20" y="10" fill="black" stroke="yellow" stroke-width="0.5" style="paint-order:stroke" text-anchor="middle" font-size="6" font-family="Rockwell" >BuckShot</text>
      
      
        <rect x="38" y="4" width="10" height="9" fill="gray" stroke="black" stroke-width="0.1" />
  <text x="45" y="8" font-size="4" font-family="Rockwell"  text-anchor="end">Ir</text>
  <text x="45" y="9" font-size="3" font-family="Rockwell"  text-anchor="start">6</text>

      
      


</g>
<g transform="translate(80 149)">

  		<rect x="0" y="0" width="50" height="70" fill="orange" stroke="black" stroke-width="1"/>
      <rect x="5" y="5" width="40" height="60" fill="White" stroke="None" opacity="0.5"/>

      

      <text x="20" y="10" fill="black" stroke="yellow" stroke-width="0.5" style="paint-order:stroke" text-anchor="middle" font-size="6" font-family="Rockwell" >Hammer</text>
      
      
        <rect x="38" y="4" width="10" height="9" fill="maroon" stroke="black" stroke-width="0.1" />
  <text x="45" y="8" font-size="4" font-family="Rockwell"  text-anchor="end">Wd</text>
  <text x="45" y="9" font-size="3" font-family="Rockwell"  text-anchor="start">2</text>

      
      


</g>
<g transform="translate(131 149)">

  		<rect x="0" y="0" width="50" height="70" fill="orange" stroke="black" stroke-width="1"/>
      <rect x="5" y="5" width="40" height="60" fill="White" stroke="None" opacity="0.5"/>

      

      <text x="20" y="10" fill="black" stroke="yellow" stroke-width="0.5" style="paint-order:stroke" text-anchor="middle" font-size="6" font-family="Rockwell" >Hammer</text>
      
      
        <rect x="38" y="4" width="10" height="9" fill="maroon" stroke="black" stroke-width="0.1" />
  <text x="45" y="8" font-size="4" font-family="Rockwell"  text-anchor="end">Wd</text>
  <text x="45" y="9" font-size="3" font-family="Rockwell"  text-anchor="start">2</text>

      
      


</g>
<g transform="translate(29 220)">

  		<rect x="0" y="0" width="50" height="70" fill="orange" stroke="black" stroke-width="1"/>
      <rect x="5" y="5" width="40" height="60" fill="White" stroke="None" opacity="0.5"/>

      

      <text x="20" y="10" fill="black" stroke="yellow" stroke-width="0.5" style="paint-order:stroke" text-anchor="middle" font-size="6" font-family="Rockwell" >Hammer</text>
      
      
        <rect x="38" y="4" width="10" height="9" fill="maroon" stroke="black" stroke-width="0.1" />
  <text x="45" y="8" font-size="4" font-family="Rockwell"  text-anchor="end">Wd</text>
  <text x="45" y="9" font-size="3" font-family="Rockwell"  text-anchor="start">2</text>

      
      


</g>
<g transform="translate(80 220)">

  		<rect x="0" y="0" width="50" height="70" fill="orange" stroke="black" stroke-width="1"/>
      <rect x="5" y="5" width="40" height="60" fill="White" stroke="None" opacity="0.5"/>

      

      <text x="20" y="10" fill="black" stroke="yellow" stroke-width="0.5" style="paint-order:stroke" text-anchor="middle" font-size="6" font-family="Rockwell" >Hammer</text>
      
      
        <rect x="38" y="4" width="10" height="9" fill="maroon" stroke="black" stroke-width="0.1" />
  <text x="45" y="8" font-size="4" font-family="Rockwell"  text-anchor="end">Wd</text>
  <text x="45" y="9" font-size="3" font-family="Rockwell"  text-anchor="start">2</text>

      
      


</g>
<g transform="translate(131 220)">

  		<rect x="0" y="0" width="50" height="70" fill="red" stroke="black" stroke-width="1"/>
      <rect x="5" y="5" width="40" height="60" fill="White" stroke="None" opacity="0.5"/>

      

      <text x="20" y="10" fill="black" stroke="yellow" stroke-width="0.5" style="paint-order:stroke" text-anchor="middle" font-size="6" font-family="Rockwell" >Whip</text>
      
      
      
      
      


</g>
</svg>
